<svg xmlns="http://www.w3.org/2000/svg" xmlns:xlink="http://www.w3.org/1999/xlink" width="500" zoomAndPan="magnify" viewBox="0 0 375 374.999991" height="500" preserveAspectRatio="xMidYMid meet" version="1.0"><defs><g/><clipPath id="c8cfb55427"><path d="M 37.5 37.5 L 337.5 37.5 L 337.5 337.5 L 37.5 337.5 Z M 37.5 37.5 " clip-rule="nonzero"/></clipPath><clipPath id="a7505af6fe"><path d="M 187.5 37.5 C 104.65625 37.5 37.5 104.65625 37.5 187.5 C 37.5 270.34375 104.65625 337.5 187.5 337.5 C 270.34375 337.5 337.5 270.34375 337.5 187.5 C 337.5 104.65625 270.34375 37.5 187.5 37.5 Z M 187.5 37.5 " clip-rule="nonzero"/></clipPath></defs><g clip-path="url(#c8cfb55427)"><g clip-path="url(#a7505af6fe)"><path fill="#000000" d="M 37.5 37.5 L 337.5 37.5 L 337.5 337.5 L 37.5 337.5 Z M 37.5 37.5 " fill-opacity="1" fill-rule="nonzero"/></g></g><g fill="#ffffff" fill-opacity="1"><g transform="translate(95.027343, 236.143336)"><g><path d="M 64.9375 -30.484375 L 64.9375 -91.703125 L 82.09375 -91.703125 L 82.09375 0 L 63.53125 0 L 26.640625 -59.8125 L 26.640625 0 L 9.484375 0 L 9.484375 -91.703125 L 27.40625 -91.703125 Z M 64.9375 -30.484375 "/></g></g></g><g fill="#ffffff" fill-opacity="1"><g transform="translate(187.496926, 236.143336)"><g><path d="M 48.796875 -93.234375 C 58.191406 -93.234375 66.132812 -90.945312 72.625 -86.375 C 79.113281 -81.8125 83.425781 -75.132812 85.5625 -66.34375 L 67.234375 -61.984375 C 66.128906 -66.765625 63.867188 -70.519531 60.453125 -73.25 C 57.035156 -75.988281 52.851562 -77.359375 47.90625 -77.359375 C 40.726562 -77.359375 35.132812 -74.816406 31.125 -69.734375 C 27.113281 -64.660156 25.109375 -56.914062 25.109375 -46.5 C 25.109375 -36.925781 26.75 -29.171875 30.03125 -23.234375 C 33.320312 -17.304688 39.191406 -14.34375 47.640625 -14.34375 C 53.023438 -14.34375 57.378906 -16.050781 60.703125 -19.46875 C 64.035156 -22.882812 66.425781 -27.625 67.875 -33.6875 L 85.8125 -28.046875 C 83.332031 -18.054688 78.804688 -10.628906 72.234375 -5.765625 C 65.660156 -0.898438 57.503906 1.53125 47.765625 1.53125 C 39.484375 1.53125 32.179688 -0.382812 25.859375 -4.21875 C 19.546875 -8.0625 14.660156 -13.484375 11.203125 -20.484375 C 7.742188 -27.492188 6.015625 -35.691406 6.015625 -45.078125 C 6.015625 -53.453125 7.46875 -61.285156 10.375 -68.578125 C 13.28125 -75.878906 17.929688 -81.8125 24.328125 -86.375 C 30.734375 -90.945312 38.890625 -93.234375 48.796875 -93.234375 Z M 48.796875 -93.234375 "/></g></g></g></svg>