<svg xmlns="http://www.w3.org/2000/svg" xmlns:xlink="http://www.w3.org/1999/xlink" width="500" zoomAndPan="magnify" viewBox="0 0 375 374.999991" height="500" preserveAspectRatio="xMidYMid meet" version="1.0"><defs><g/><clipPath id="3b2879b1a9"><path d="M 75 147.683594 L 303 147.683594 L 303 227.183594 L 75 227.183594 Z M 75 147.683594 " clip-rule="nonzero"/></clipPath><clipPath id="b89431af05"><path d="M 61.636719 159 L 313.636719 159 L 313.636719 214 L 61.636719 214 Z M 61.636719 159 " clip-rule="nonzero"/></clipPath></defs><g clip-path="url(#3b2879b1a9)"><path fill="#ffffff" d="M 185.246094 199.632812 L 302.09375 199.632812 L 291.496094 227.101562 L 174.65625 227.101562 Z M 87.027344 147.714844 L 211.261719 147.714844 L 199.984375 176.921875 L 75.757812 176.921875 Z M 146.234375 199.804688 L 161.304688 199.804688 L 150.710938 227.273438 L 135.644531 227.273438 Z M 166.4375 199.632812 L 155.839844 227.101562 L 170.90625 227.101562 L 181.503906 199.632812 Z M 166.4375 199.632812 " fill-opacity="1" fill-rule="evenodd"/></g><g clip-path="url(#b89431af05)"><path fill="#ff1717" d="M 82.5625 159.292969 L 313.328125 159.292969 L 292.402344 213.539062 L 61.636719 213.539062 Z M 82.5625 159.292969 " fill-opacity="1" fill-rule="evenodd"/></g><g fill="#ffffff" fill-opacity="1"><g transform="translate(104.866002, 200.249987)"><g><path d="M 17.546875 -16.46875 L 17.546875 -11.875 C 16.890625 -13.03125 16.21875 -14.21875 15.515625 -15.375 L 9.875 -24.9375 L 2.109375 -24.9375 L 2.109375 0 L 9.8125 0 L 9.8125 -12.921875 C 10.546875 -11.625 11.28125 -10.296875 12.046875 -9 L 17.3125 0 L 25.25 0 L 25.25 -24.9375 L 17.546875 -24.9375 Z M 17.546875 -16.46875 "/></g></g></g><g fill="#ffffff" fill-opacity="1"><g transform="translate(132.21326, 200.249987)"><g><path d="M 14.015625 0.8125 C 20.640625 0.8125 25.390625 -3.1875 25.921875 -9.703125 L 18.109375 -9.703125 C 17.828125 -6.828125 16.5 -5.4375 14.078125 -5.4375 C 11.203125 -5.4375 9.421875 -7.5625 9.421875 -12.4375 C 9.421875 -17.03125 11.171875 -19.296875 14.078125 -19.296875 C 16.296875 -19.296875 17.765625 -18.046875 18.109375 -15.484375 L 25.859375 -15.484375 C 25.125 -21.71875 20.453125 -25.53125 14.015625 -25.53125 C 6.765625 -25.53125 1.578125 -20.5 1.578125 -12.359375 C 1.578125 -4.234375 6.765625 0.8125 14.015625 0.8125 Z M 14.015625 0.8125 "/></g></g></g><g fill="#ffffff" fill-opacity="1"><g transform="translate(159.245382, 200.249987)"><g/></g></g><g fill="#ffffff" fill-opacity="1"><g transform="translate(168.419491, 200.249987)"><g><path d="M 17.546875 -16.46875 L 17.546875 -11.875 C 16.890625 -13.03125 16.21875 -14.21875 15.515625 -15.375 L 9.875 -24.9375 L 2.109375 -24.9375 L 2.109375 0 L 9.8125 0 L 9.8125 -12.921875 C 10.546875 -11.625 11.28125 -10.296875 12.046875 -9 L 17.3125 0 L 25.25 0 L 25.25 -24.9375 L 17.546875 -24.9375 Z M 17.546875 -16.46875 "/></g></g></g><g fill="#ffffff" fill-opacity="1"><g transform="translate(195.766749, 200.249987)"><g><path d="M 20.984375 -8.296875 C 20.984375 -13.453125 17.9375 -18.703125 10.96875 -18.703125 C 4.96875 -18.703125 0.875 -14.859375 0.875 -9 C 0.875 -3.15625 4.734375 0.703125 11.03125 0.703125 C 15.734375 0.703125 18.984375 -1.40625 20.390625 -4.875 L 13.65625 -5.296875 C 13.109375 -4.546875 12.21875 -4.203125 11.109375 -4.203125 C 9.25 -4.203125 8.125 -5.15625 7.78125 -7.28125 L 20.984375 -7.28125 Z M 10.890625 -13.796875 C 12.546875 -13.796875 13.5625 -13 13.84375 -11.109375 L 7.84375 -11.109375 C 8.234375 -13 9.25 -13.796875 10.890625 -13.796875 Z M 10.890625 -13.796875 "/></g></g></g><g fill="#ffffff" fill-opacity="1"><g transform="translate(217.616552, 200.249987)"><g><path d="M 22.171875 -10.265625 L 21.40625 -7.21875 L 20.703125 -10.328125 L 18.671875 -18.078125 L 12.46875 -18.078125 L 10.578125 -10.15625 L 10.09375 -7.78125 L 9.5625 -10.1875 L 7.328125 -18.078125 L 0.171875 -18.078125 L 6.125 0 L 13 0 L 15.34375 -8.6875 L 15.65625 -10.015625 L 15.9375 -8.71875 L 18.28125 0 L 25.15625 0 L 31.109375 -18.078125 L 24.375 -18.078125 Z M 22.171875 -10.265625 "/></g></g></g><g fill="#ffffff" fill-opacity="1"><g transform="translate(248.885574, 200.249987)"><g><path d="M 10.515625 0.703125 C 15.96875 0.703125 20 -1.265625 20 -5.78125 C 20 -9 17.9375 -10.96875 12.859375 -11.59375 L 9.984375 -11.953125 C 8.515625 -12.125 7.734375 -12.546875 7.734375 -13.421875 C 7.734375 -14.296875 8.515625 -14.8125 10.125 -14.8125 C 11.8125 -14.8125 12.71875 -14.25 12.96875 -13.03125 L 19.375 -13.3125 C 18.640625 -16.84375 15.65625 -18.734375 10.46875 -18.734375 C 4.90625 -18.734375 1.578125 -16.640625 1.578125 -12.6875 C 1.578125 -9.3125 3.859375 -7.5625 8.65625 -6.96875 L 11.53125 -6.625 C 12.96875 -6.453125 13.5625 -5.890625 13.5625 -5.078125 C 13.5625 -4.09375 12.6875 -3.390625 10.796875 -3.390625 C 8.96875 -3.390625 8.0625 -4.09375 7.84375 -5.53125 L 1.21875 -5.21875 C 1.78125 -1.546875 4.6875 0.703125 10.515625 0.703125 Z M 10.515625 0.703125 "/></g></g></g></svg>